<svg width="15" height="16" viewBox="0 0 15 16" fill="none" xmlns="http://www.w3.org/2000/svg">
<path d="M2.41667 1.7H2.51667V1.6V0.1H3.92778V1.6V1.7H4.02778H10.4722H10.5722V1.6V0.1H11.9833V1.6V1.7H12.0833H12.8889C13.3054 1.7 13.6594 1.84615 13.9563 2.14096C14.2531 2.43574 14.4 2.78696 14.4 3.2V14.4C14.4 14.813 14.2531 15.1643 13.9563 15.459C13.6594 15.7539 13.3054 15.9 12.8889 15.9H1.61111C1.19456 15.9 0.840582 15.7539 0.54373 15.459C0.246898 15.1643 0.1 14.813 0.1 14.4V3.2C0.1 2.78696 0.246898 2.43574 0.543729 2.14096C0.840582 1.84615 1.19456 1.7 1.61111 1.7H2.41667ZM1.51111 14.4V14.5H1.61111H12.8889H12.9889V14.4V6.4V6.3H12.8889H1.61111H1.51111V6.4V14.4ZM1.51111 4.8V4.9H1.61111H12.8889H12.9889V4.8V3.2V3.1H12.8889H1.61111H1.51111V3.2V4.8ZM7.25 9.5C7.04673 9.5 6.88118 9.43279 6.74651 9.29905C6.61187 9.16534 6.54444 9.00126 6.54444 8.8C6.54444 8.59874 6.61187 8.43466 6.74651 8.30096C6.88118 8.16721 7.04673 8.1 7.25 8.1C7.45327 8.1 7.61882 8.16721 7.75349 8.30096C7.88813 8.43466 7.95556 8.59874 7.95556 8.8C7.95556 9.00126 7.88813 9.16534 7.75349 9.29905C7.61882 9.43279 7.45327 9.5 7.25 9.5ZM4.02778 9.5C3.8245 9.5 3.65896 9.43279 3.52428 9.29905C3.38965 9.16534 3.32222 9.00126 3.32222 8.8C3.32222 8.59874 3.38965 8.43466 3.52429 8.30096C3.65896 8.16721 3.8245 8.1 4.02778 8.1C4.23105 8.1 4.3966 8.16721 4.53127 8.30096C4.6659 8.43466 4.73333 8.59874 4.73333 8.8C4.73333 9.00126 4.6659 9.16534 4.53127 9.29905C4.3966 9.43279 4.23105 9.5 4.02778 9.5ZM10.4722 9.5C10.2689 9.5 10.1034 9.43279 9.96873 9.29905C9.8341 9.16534 9.76667 9.00126 9.76667 8.8C9.76667 8.59874 9.8341 8.43466 9.96873 8.30096C10.1034 8.16721 10.2689 8.1 10.4722 8.1C10.6755 8.1 10.841 8.16721 10.9757 8.30096C11.1103 8.43466 11.1778 8.59874 11.1778 8.8C11.1778 9.00126 11.1103 9.16534 10.9757 9.29905C10.841 9.43279 10.6755 9.5 10.4722 9.5ZM7.25 12.7C7.04673 12.7 6.88118 12.6328 6.74651 12.499C6.61187 12.3653 6.54444 12.2013 6.54444 12C6.54444 11.7987 6.61187 11.6347 6.74651 11.501C6.88118 11.3672 7.04673 11.3 7.25 11.3C7.45327 11.3 7.61882 11.3672 7.75349 11.501C7.88813 11.6347 7.95556 11.7987 7.95556 12C7.95556 12.2013 7.88813 12.3653 7.75349 12.499C7.61882 12.6328 7.45328 12.7 7.25 12.7ZM4.02778 12.7C3.8245 12.7 3.65896 12.6328 3.52429 12.499C3.38965 12.3653 3.32222 12.2013 3.32222 12C3.32222 11.7987 3.38965 11.6347 3.52429 11.501C3.65896 11.3672 3.8245 11.3 4.02778 11.3C4.23105 11.3 4.3966 11.3672 4.53127 11.501C4.6659 11.6347 4.73333 11.7987 4.73333 12C4.73333 12.2013 4.6659 12.3653 4.53127 12.499C4.3966 12.6328 4.23105 12.7 4.02778 12.7ZM10.4722 12.7C10.2689 12.7 10.1034 12.6328 9.96873 12.499C9.8341 12.3653 9.76667 12.2013 9.76667 12C9.76667 11.7987 9.8341 11.6347 9.96873 11.501C10.1034 11.3672 10.2689 11.3 10.4722 11.3C10.6755 11.3 10.841 11.3672 10.9757 11.501C11.1103 11.6347 11.1778 11.7987 11.1778 12C11.1778 12.2013 11.1103 12.3653 10.9757 12.499C10.841 12.6328 10.6755 12.7 10.4722 12.7Z" fill="#BBBBBB" stroke="white" stroke-width="0.2"/>
</svg>
