<svg width="20" height="20" viewBox="0 0 20 20" fill="none" xmlns="http://www.w3.org/2000/svg">
<mask id="mask0_108_198" style="mask-type:alpha" maskUnits="userSpaceOnUse" x="0" y="0" width="20" height="20">
<rect width="20" height="20" fill="#D9D9D9"/>
</mask>
<g mask="url(#mask0_108_198)">
<path d="M3.65278 6.44444V6.56944H3.77778H16.2222H16.3472V6.44444V3.77778V3.65278H16.2222H3.77778H3.65278V3.77778V6.44444ZM6.125 8.22222V8.09722H6H3.77778H3.65278V8.22222V16.2222V16.3472H3.77778H6H6.125V16.2222V8.22222ZM14 8.09722H13.875V8.22222V16.2222V16.3472H14H16.2222H16.3472V16.2222V8.22222V8.09722H16.2222H14ZM12.3472 8.22222V8.09722H12.2222H7.77778H7.65278V8.22222V16.2222V16.3472H7.77778H12.2222H12.3472V16.2222V8.22222ZM16.2222 17.875H3.77778C3.3223 17.875 2.9355 17.7143 2.61061 17.3894C2.28572 17.0645 2.125 16.6777 2.125 16.2222V3.77778C2.125 3.3223 2.28572 2.9355 2.61061 2.61061C2.9355 2.28572 3.3223 2.125 3.77778 2.125H16.2222C16.6777 2.125 17.0645 2.28572 17.3894 2.61061C17.7143 2.9355 17.875 3.3223 17.875 3.77778V16.2222C17.875 16.6777 17.7143 17.0645 17.3894 17.3894C17.0645 17.7143 16.6777 17.875 16.2222 17.875Z" fill="#404040" stroke="white" stroke-width="0.25"/>
</g>
</svg>
